<svg width="100" height="100" viewBox="0 0 100 100" fill="none" xmlns="http://www.w3.org/2000/svg">
<g clip-path="url(#clip0_318_182)">
<path fill-rule="evenodd" clip-rule="evenodd" d="M93.75 50C93.75 38.3968 89.1406 27.2688 80.9359 19.0641C72.7312 10.8594 61.6032 6.25 50 6.25C38.3968 6.25 27.2688 10.8594 19.0641 19.0641C10.8594 27.2688 6.25 38.3968 6.25 50C6.25 61.6032 10.8594 72.7312 19.0641 80.9359C27.2688 89.1406 38.3968 93.75 50 93.75C61.6032 93.75 72.7312 89.1406 80.9359 80.9359C89.1406 72.7312 93.75 61.6032 93.75 50ZM0 50C0 36.7392 5.26784 24.0215 14.6447 14.6447C24.0215 5.26784 36.7392 0 50 0C63.2608 0 75.9785 5.26784 85.3553 14.6447C94.7322 24.0215 100 36.7392 100 50C100 63.2608 94.7322 75.9785 85.3553 85.3553C75.9785 94.7322 63.2608 100 50 100C36.7392 100 24.0215 94.7322 14.6447 85.3553C5.26784 75.9785 0 63.2608 0 50ZM28.125 53.125C27.2962 53.125 26.5013 52.7958 25.9153 52.2097C25.3292 51.6237 25 50.8288 25 50C25 49.1712 25.3292 48.3763 25.9153 47.7903C26.5013 47.2042 27.2962 46.875 28.125 46.875L64.3313 46.875L50.9125 33.4625C50.6219 33.172 50.3915 32.827 50.2342 32.4474C50.077 32.0678 49.9961 31.6609 49.9961 31.25C49.9961 30.8391 50.077 30.4322 50.2342 30.0526C50.3915 29.673 50.6219 29.328 50.9125 29.0375C51.203 28.7469 51.548 28.5165 51.9276 28.3592C52.3072 28.202 52.7141 28.1211 53.125 28.1211C53.5359 28.1211 53.9428 28.202 54.3224 28.3592C54.702 28.5165 55.047 28.7469 55.3375 29.0375L74.0875 47.7875C74.3785 48.0778 74.6094 48.4226 74.767 48.8023C74.9245 49.1819 75.0056 49.589 75.0056 50C75.0056 50.411 74.9245 50.8181 74.767 51.1977C74.6094 51.5774 74.3785 51.9222 74.0875 52.2125L55.3375 70.9625C54.7507 71.5493 53.9548 71.8789 53.125 71.8789C52.2952 71.8789 51.4993 71.5493 50.9125 70.9625C50.3257 70.3757 49.9961 69.5798 49.9961 68.75C49.9961 67.9202 50.3257 67.1243 50.9125 66.5375L64.3313 53.125L28.125 53.125Z" fill="#9747FF"/>
</g>
<defs>
<clipPath id="clip0_318_182">
<rect width="100" height="100" fill="white" transform="matrix(-1 0 0 -1 100 100)"/>
</clipPath>
</defs>
</svg>
