<svg width="390" height="176" viewBox="0 0 390 176" fill="none" xmlns="http://www.w3.org/2000/svg">
<path d="M76.05 102.65C76.5167 102.65 76.8333 102.75 77 102.95C77.2 103.15 77.3 103.467 77.3 103.9V106.75C77.3 107.217 77.2 107.55 77 107.75C76.8333 107.917 76.5167 108 76.05 108H74.95C74.5167 108 74.2 107.917 74 107.75C73.8 107.55 73.7 107.217 73.7 106.75V103.9C73.7 103.467 73.8 103.15 74 102.95C74.2 102.75 74.5167 102.65 74.95 102.65H76.05ZM111.335 73.5V106.6C111.335 107.533 110.885 108 109.985 108H106.485C106.085 108 105.752 107.917 105.485 107.75C105.252 107.55 105.052 107.267 104.885 106.9L91.6852 80.7C91.3852 80.0667 91.0518 79.3833 90.6852 78.65C90.3185 77.8833 90.0185 77.1833 89.7852 76.55H88.8352C88.8685 77.2167 88.8852 77.9 88.8852 78.6C88.9185 79.3 88.9352 80 88.9352 80.7V108H85.6852V74.9C85.6852 73.9667 86.1518 73.5 87.0852 73.5H90.4352C90.8352 73.5 91.1518 73.6 91.3852 73.8C91.6518 73.9667 91.8685 74.2333 92.0352 74.6L104.835 100.2C105.202 100.9 105.585 101.65 105.985 102.45C106.385 103.25 106.768 104.05 107.135 104.85H108.185C108.185 104.017 108.168 103.183 108.135 102.35C108.102 101.517 108.085 100.7 108.085 99.9V73.5H111.335ZM123.896 73.5V108H120.646V73.5H123.896ZM145.145 72.9C146.545 72.9 147.745 72.9333 148.745 73C149.778 73.0667 150.728 73.1667 151.595 73.3C152.462 73.4333 153.362 73.6167 154.295 73.85L153.895 76.35C152.895 76.2167 151.978 76.1167 151.145 76.05C150.345 75.9833 149.462 75.9333 148.495 75.9C147.562 75.8333 146.445 75.8 145.145 75.8C142.678 75.8 140.728 76.2833 139.295 77.25C137.862 78.1833 136.845 79.7333 136.245 81.9C135.645 84.0667 135.345 87.0167 135.345 90.75C135.345 94.4833 135.645 97.4333 136.245 99.6C136.845 101.767 137.862 103.333 139.295 104.3C140.728 105.233 142.678 105.7 145.145 105.7C147.212 105.7 148.962 105.65 150.395 105.55C151.828 105.45 153.228 105.3 154.595 105.1L154.995 107.55C153.595 107.917 152.145 108.183 150.645 108.35C149.178 108.517 147.345 108.6 145.145 108.6C141.912 108.6 139.312 108.033 137.345 106.9C135.412 105.733 134.012 103.85 133.145 101.25C132.278 98.65 131.845 95.15 131.845 90.75C131.845 86.35 132.278 82.85 133.145 80.25C134.012 77.65 135.412 75.7833 137.345 74.65C139.312 73.4833 141.912 72.9 145.145 72.9ZM172.978 72.85C175.445 72.85 177.528 73.1667 179.228 73.8C180.928 74.4 182.295 75.4 183.328 76.8C184.361 78.1667 185.111 80 185.578 82.3C186.045 84.6 186.278 87.4167 186.278 90.75C186.278 94.0833 186.045 96.9 185.578 99.2C185.111 101.5 184.361 103.35 183.328 104.75C182.295 106.117 180.928 107.117 179.228 107.75C177.528 108.35 175.445 108.65 172.978 108.65C170.511 108.65 168.428 108.35 166.728 107.75C165.028 107.117 163.661 106.117 162.628 104.75C161.595 103.35 160.828 101.5 160.328 99.2C159.861 96.9 159.628 94.0833 159.628 90.75C159.628 87.4167 159.861 84.6 160.328 82.3C160.828 80 161.595 78.1667 162.628 76.8C163.661 75.4 165.028 74.4 166.728 73.8C168.428 73.1667 170.511 72.85 172.978 72.85ZM172.978 75.8C170.511 75.8 168.545 76.2833 167.078 77.25C165.645 78.1833 164.628 79.7333 164.028 81.9C163.428 84.0667 163.128 87.0167 163.128 90.75C163.128 94.4833 163.428 97.4333 164.028 99.6C164.628 101.767 165.645 103.333 167.078 104.3C168.545 105.233 170.511 105.7 172.978 105.7C175.445 105.7 177.395 105.233 178.828 104.3C180.261 103.333 181.278 101.767 181.878 99.6C182.511 97.4333 182.828 94.4833 182.828 90.75C182.828 87.0167 182.511 84.0667 181.878 81.9C181.278 79.7333 180.261 78.1833 178.828 77.25C177.395 76.2833 175.445 75.8 172.978 75.8ZM197.379 73.5V101.65C197.379 102.783 197.696 103.667 198.329 104.3C198.962 104.9 199.862 105.2 201.029 105.2H213.879L213.979 107.75C211.779 107.883 209.546 107.967 207.279 108C205.012 108.033 202.746 108.05 200.479 108.05C198.312 108.05 196.712 107.483 195.679 106.35C194.646 105.183 194.129 103.75 194.129 102.05V73.5H197.379ZM232.465 73.5C232.765 73.5 233.032 73.5833 233.265 73.75C233.532 73.9167 233.698 74.15 233.765 74.45L245.315 108H241.915L232.215 78.9C232.082 78.4333 231.932 77.9667 231.765 77.5C231.598 77 231.448 76.5333 231.315 76.1H229.865C229.732 76.5333 229.582 77 229.415 77.5C229.282 77.9667 229.132 78.4333 228.965 78.9L219.265 108H215.865L227.415 74.45C227.515 74.15 227.682 73.9167 227.915 73.75C228.148 73.5833 228.415 73.5 228.715 73.5H232.465ZM239.315 93.7V96.55H221.815V93.7H239.315Z" fill="#9747FF"/>
<path d="M309.5 79.3511L314.599 72L314.35 80.9082L322.847 77.9201L317.347 84.9836L326 87.5018L317.347 90.0199L322.847 97.0799L314.35 94.0918L314.599 103L309.5 95.6489L304.401 103L304.65 94.0918L296.149 97.0799L301.653 90.0199L293 87.5018L301.653 84.9836L296.149 77.9201L304.65 80.9082L304.401 72L309.5 79.3511Z" fill="#9747FF"/>
</svg>
