<svg width="100" height="100" viewBox="0 0 100 100" fill="none" xmlns="http://www.w3.org/2000/svg">
<g clip-path="url(#clip0_318_184)">
<path d="M50 93.75C38.3968 93.75 27.2688 89.1406 19.0641 80.9359C10.8594 72.7312 6.25 61.6032 6.25 50C6.25 38.3968 10.8594 27.2688 19.0641 19.0641C27.2688 10.8594 38.3968 6.25 50 6.25C61.6032 6.25 72.7312 10.8594 80.9359 19.0641C89.1406 27.2688 93.75 38.3968 93.75 50C93.75 61.6032 89.1406 72.7312 80.9359 80.9359C72.7312 89.1406 61.6032 93.75 50 93.75ZM50 100C63.2608 100 75.9785 94.7322 85.3553 85.3553C94.7322 75.9785 100 63.2608 100 50C100 36.7392 94.7322 24.0215 85.3553 14.6447C75.9785 5.26784 63.2608 0 50 0C36.7392 0 24.0215 5.26784 14.6447 14.6447C5.26784 24.0215 0 36.7392 0 50C0 63.2608 5.26784 75.9785 14.6447 85.3553C24.0215 94.7322 36.7392 100 50 100Z" fill="#9747FF"/>
<path d="M29.0375 29.0375C29.3278 28.7464 29.6726 28.5156 30.0523 28.358C30.4319 28.2005 30.8389 28.1194 31.25 28.1194C31.661 28.1194 32.068 28.2005 32.4477 28.358C32.8273 28.5156 33.1722 28.7464 33.4625 29.0375L50 45.5812L66.5375 29.0375C66.828 28.7469 67.173 28.5164 67.5526 28.3592C67.9322 28.202 68.3391 28.121 68.75 28.121C69.1609 28.121 69.5677 28.202 69.9474 28.3592C70.327 28.5164 70.6719 28.7469 70.9625 29.0375C71.253 29.328 71.4835 29.673 71.6407 30.0526C71.798 30.4322 71.8789 30.8391 71.8789 31.25C71.8789 31.6609 71.798 32.0677 71.6407 32.4474C71.4835 32.827 71.253 33.1719 70.9625 33.4625L54.4187 50L70.9625 66.5375C71.253 66.828 71.4835 67.173 71.6407 67.5526C71.798 67.9322 71.8789 68.3391 71.8789 68.75C71.8789 69.1609 71.798 69.5677 71.6407 69.9474C71.4835 70.327 71.253 70.6719 70.9625 70.9625C70.6719 71.253 70.327 71.4835 69.9474 71.6407C69.5677 71.798 69.1609 71.8789 68.75 71.8789C68.3391 71.8789 67.9322 71.798 67.5526 71.6407C67.173 71.4835 66.828 71.253 66.5375 70.9625L50 54.4187L33.4625 70.9625C33.1719 71.253 32.827 71.4835 32.4474 71.6407C32.0677 71.798 31.6609 71.8789 31.25 71.8789C30.8391 71.8789 30.4322 71.798 30.0526 71.6407C29.673 71.4835 29.328 71.253 29.0375 70.9625C28.7469 70.6719 28.5164 70.327 28.3592 69.9474C28.202 69.5677 28.121 69.1609 28.121 68.75C28.121 68.3391 28.202 67.9322 28.3592 67.5526C28.5164 67.173 28.7469 66.828 29.0375 66.5375L45.5812 50L29.0375 33.4625C28.7464 33.1722 28.5156 32.8273 28.358 32.4477C28.2005 32.068 28.1194 31.661 28.1194 31.25C28.1194 30.8389 28.2005 30.4319 28.358 30.0523C28.5156 29.6726 28.7464 29.3278 29.0375 29.0375Z" fill="#9747FF"/>
</g>
<defs>
<clipPath id="clip0_318_184">
<rect width="100" height="100" fill="white"/>
</clipPath>
</defs>
</svg>
